<svg width="30" height="30" viewBox="0 0 30 30" fill="none" xmlns="http://www.w3.org/2000/svg">
<rect width="30" height="30" rx="15" fill="#FFB703"/>
<g clip-path="url(#clip0_30_48643)">
<path fill-rule="evenodd" clip-rule="evenodd" d="M22.5093 14.6968C22.6997 14.6033 22.8451 14.438 22.9137 14.2373C22.9823 14.0366 22.9683 13.8168 22.8749 13.6264L20.7653 9.31519C20.7191 9.22085 20.6547 9.13653 20.5759 9.06706C20.4971 8.99759 20.4054 8.94433 20.306 8.9103C20.2066 8.87628 20.1014 8.86217 19.9966 8.86877C19.8917 8.87537 19.7892 8.90256 19.6949 8.94879L18.2581 9.65279C18.0678 9.74615 17.9223 9.91123 17.8536 10.1118C17.7849 10.3123 17.7986 10.5319 17.8917 10.7224L20.0021 15.0336C20.0483 15.1279 20.1127 15.2122 20.1915 15.2817C20.2703 15.3512 20.362 15.4045 20.4614 15.4385C20.5608 15.4725 20.6659 15.4866 20.7708 15.48C20.8756 15.4734 20.9781 15.4462 21.0725 15.4L22.5093 14.6968ZM19.4157 10.1984C19.3449 10.2331 19.2817 10.2813 19.2296 10.3404C19.1775 10.3995 19.1375 10.4683 19.112 10.5429C19.0865 10.6174 19.0759 10.6963 19.0809 10.7749C19.0858 10.8535 19.1062 10.9304 19.1409 11.0012C19.1755 11.0719 19.2238 11.1352 19.2829 11.1873C19.342 11.2394 19.4108 11.2793 19.4854 11.3049C19.5599 11.3304 19.6388 11.341 19.7174 11.336C19.796 11.3311 19.8729 11.3107 19.9437 11.276C20.0866 11.206 20.1958 11.0821 20.2473 10.9315C20.2989 10.7809 20.2885 10.6161 20.2185 10.4732C20.1485 10.3303 20.0245 10.2211 19.874 10.1695C19.7234 10.118 19.5586 10.1284 19.4157 10.1984ZM10.2181 9.13759C10.0261 9.04745 9.8061 9.03727 9.60657 9.10928C9.40704 9.18129 9.24428 9.3296 9.15408 9.52159L7.11488 13.8672C7.02474 14.0592 7.01456 14.2792 7.08657 14.4787C7.15858 14.6782 7.30689 14.841 7.49888 14.9312L8.94768 15.6112C9.1397 15.7013 9.35966 15.7115 9.55919 15.6395C9.75871 15.5675 9.92147 15.4192 10.0117 15.2272L12.0517 10.8816C12.0963 10.7865 12.1217 10.6835 12.1265 10.5785C12.1313 10.4736 12.1154 10.3687 12.0797 10.2699C12.0439 10.1711 11.9891 10.0803 11.9183 10.0027C11.8474 9.92508 11.762 9.86218 11.6669 9.81759L10.2181 9.13759ZM8.64848 14.3664C8.7201 14.4021 8.79814 14.4231 8.878 14.4282C8.95786 14.4333 9.03794 14.4223 9.11351 14.396C9.18908 14.3697 9.25862 14.3285 9.31804 14.2749C9.37746 14.2213 9.42556 14.1563 9.4595 14.0839C9.49344 14.0114 9.51254 13.9329 9.51568 13.8529C9.51881 13.7729 9.50592 13.6932 9.47776 13.6183C9.4496 13.5434 9.40674 13.4748 9.3517 13.4167C9.29666 13.3586 9.23055 13.3122 9.15728 13.28C9.01336 13.2134 8.84894 13.2066 8.69997 13.2609C8.55099 13.3152 8.42957 13.4262 8.36223 13.5698C8.2949 13.7133 8.28712 13.8777 8.34061 14.027C8.39409 14.1762 8.50529 14.2983 8.64848 14.3664Z" fill="white"/>
<path d="M18.2903 11.3996L18.3015 11.398H18.3039C18.4207 11.3827 18.5326 11.3418 18.6318 11.2782C18.731 11.2146 18.8148 11.1298 18.8775 11.03L18.9935 10.5004C18.9798 10.3962 18.9456 10.2957 18.8931 10.2046C18.8405 10.1136 18.7705 10.0338 18.687 9.96981C18.6036 9.90584 18.5084 9.85894 18.4068 9.8318C18.3052 9.80466 18.1993 9.79781 18.0951 9.81164H18.0903L18.0743 9.81404L18.0207 9.82204L17.8239 9.85084C17.6575 9.87564 17.4239 9.91324 17.1559 9.96284C16.6271 10.0596 15.9311 10.2076 15.3383 10.4052C14.9983 10.5188 14.6607 10.7276 14.3639 10.9452C14.0575 11.1692 13.7463 11.4372 13.4535 11.7092C12.936 12.1982 12.4414 12.7108 11.9711 13.2452C11.5255 13.7492 11.3991 14.5884 11.9575 15.194C12.2343 15.4948 12.6935 15.9044 13.3103 16.09C13.9727 16.29 14.7231 16.202 15.4559 15.662L16.0327 15.2892C16.0961 15.3372 16.1681 15.3954 16.2487 15.4636C16.4487 15.6316 16.6687 15.8308 16.8759 16.026C17.1108 16.2478 17.3418 16.4737 17.5687 16.7036L17.6127 16.7476L17.6231 16.7588L17.6263 16.762L17.7207 16.8596L17.8423 16.9196C18.3063 17.1516 18.7887 17.0556 19.1007 16.9516C19.4343 16.8388 19.7519 16.6548 20.0079 16.4852C20.3291 16.2695 20.6332 16.0293 20.9175 15.7668L20.9335 15.7516L20.9391 15.7468L20.9407 15.7452C21.0947 15.5993 21.1852 15.3981 21.1909 15.1859C21.1966 14.9738 21.1178 14.7681 20.9719 14.614C20.8259 14.46 20.6247 14.3703 20.4125 14.3646C20.2004 14.3589 19.9947 14.4377 19.8407 14.5836L19.8399 14.5844L19.8311 14.5924L19.7911 14.6292C19.5797 14.8183 19.356 14.9931 19.1215 15.1524C18.9565 15.2689 18.7775 15.364 18.5887 15.4356L18.5703 15.4412L18.5367 15.4076C18.3696 15.2413 18.2005 15.077 18.0295 14.9148L17.9735 14.8612C17.747 14.6468 17.5147 14.4387 17.2767 14.2372C17.0551 14.0516 16.8023 13.8548 16.5759 13.7308C16.0695 13.4532 15.5919 13.67 15.3767 13.8084L14.5423 14.3476L14.5199 14.3644C14.1751 14.6228 13.9415 14.6092 13.7719 14.558C13.5911 14.5036 13.4087 14.378 13.2439 14.222C13.6566 13.7556 14.0901 13.308 14.5431 12.8804C14.8087 12.6332 15.0703 12.4108 15.3079 12.2364C15.5559 12.0556 15.7367 11.9588 15.8439 11.9236C16.3303 11.7612 16.9391 11.6292 17.4439 11.5364C17.7096 11.4878 17.9764 11.4443 18.2439 11.406L18.2903 11.3996Z" fill="white"/>
<path fill-rule="evenodd" clip-rule="evenodd" d="M11.5032 10.2639C11.3134 10.3474 11.1634 10.5014 11.085 10.6934C11.0065 10.8855 11.0057 11.1004 11.0827 11.293C11.1597 11.4856 11.3085 11.6408 11.4977 11.7258C11.6869 11.8108 11.9017 11.819 12.0968 11.7487L12.1176 11.7407L12.18 11.7167C12.4932 11.5931 12.8079 11.4737 13.124 11.3583C13.3936 11.2599 13.6664 11.1654 13.892 11.0958C13.9995 11.0627 14.1081 11.0334 14.2176 11.0078L14.2616 11.0143C14.3102 11.0217 14.3715 11.0334 14.4456 11.0494C14.592 11.0822 14.7632 11.1278 14.9304 11.1758C15.1213 11.2303 15.3112 11.2882 15.5 11.3494L15.536 11.3614L15.544 11.3647H15.5464C15.7468 11.4286 15.9643 11.411 16.1519 11.3158C16.3394 11.2205 16.4819 11.0552 16.5485 10.8557C16.615 10.6562 16.6004 10.4385 16.5076 10.2497C16.4148 10.0609 16.2515 9.91627 16.0528 9.84705L15.8056 10.5895L16.0536 9.84705L16.048 9.84545L16.0368 9.84225L15.9952 9.82865C15.788 9.76059 15.5794 9.69658 15.3696 9.63665C15.1786 9.58154 14.986 9.53192 14.792 9.48785C14.5981 9.44019 14.3997 9.41285 14.2 9.40625C14.0504 9.40625 13.8984 9.43825 13.7992 9.46225C13.6816 9.48945 13.5512 9.52625 13.4208 9.56625C13.1373 9.6557 12.8559 9.75173 12.5768 9.85425C12.2472 9.97446 11.9192 10.099 11.5928 10.2278L11.5272 10.2535L11.5032 10.2639ZM10.3464 14.8223L10.3712 14.8454L10.444 14.9127C10.8073 15.2499 11.1738 15.5838 11.5432 15.9143C11.8584 16.1959 12.184 16.4806 12.4592 16.7078C12.5979 16.8231 12.7158 16.9169 12.8128 16.9894C12.8768 17.0364 12.9195 17.0665 12.9408 17.0799L15.2096 17.9303C15.3419 17.9798 15.4849 17.9935 15.6242 17.9699C15.7634 17.9463 15.8939 17.8862 16.0024 17.7959L17.688 16.3919C17.7683 16.3216 17.8619 16.2681 17.9631 16.2346C18.0644 16.201 18.1713 16.188 18.2777 16.1964C18.384 16.2048 18.4876 16.2344 18.5823 16.2834C18.6771 16.3324 18.7611 16.3999 18.8294 16.4818C18.8977 16.5638 18.9489 16.6585 18.98 16.7606C19.0111 16.8626 19.0215 16.9698 19.0106 17.0759C18.9997 17.1821 18.9676 17.2849 18.9163 17.3785C18.8651 17.472 18.7956 17.5543 18.712 17.6207L17.0272 19.0255C16.7016 19.2968 16.3099 19.477 15.892 19.5478C15.4741 19.6186 15.0449 19.5775 14.648 19.4286L12.28 18.5407L12.2424 18.5215C12.0176 18.4095 11.7048 18.1615 11.4392 17.9406C11.1137 17.6691 10.7931 17.3918 10.4776 17.1087C10.1001 16.771 9.726 16.4297 9.35525 16.0846L9.28005 16.015L9.25365 15.9911C9.09866 15.8461 9.00758 15.6456 9.00045 15.4335C8.99333 15.2215 9.07073 15.0152 9.21565 14.8602C9.36056 14.7053 9.56111 14.6142 9.77318 14.6071C9.98524 14.5999 10.1915 14.6773 10.3464 14.8223ZM9.74805 18.8935C9.81542 18.8128 9.89803 18.7462 9.99115 18.6975C10.0843 18.6488 10.1861 18.6189 10.2908 18.6095C10.3954 18.6001 10.5009 18.6115 10.6012 18.6429C10.7015 18.6743 10.7946 18.7252 10.8752 18.7927L11.6416 19.4327C11.7562 19.5284 11.8954 19.5902 12.0432 19.611L13.0328 19.7494C13.1369 19.7641 13.2371 19.799 13.3276 19.8523C13.4182 19.9056 13.4973 19.9763 13.5606 20.0602C13.6238 20.1441 13.67 20.2396 13.6963 20.3413C13.7226 20.4431 13.7287 20.549 13.714 20.6531C13.6994 20.7571 13.6645 20.8573 13.6112 20.9478C13.5579 21.0384 13.4872 21.1175 13.4033 21.1808C13.3194 21.244 13.2239 21.2902 13.1222 21.3165C13.0204 21.3428 12.9145 21.3489 12.8104 21.3343L11.8216 21.1958C11.3777 21.1336 10.96 20.9482 10.616 20.6607L9.84965 20.0206C9.76882 19.9533 9.70206 19.8707 9.65319 19.7775C9.60433 19.6844 9.57432 19.5825 9.56488 19.4777C9.55545 19.3729 9.56677 19.2673 9.5982 19.1669C9.62963 19.0666 9.68055 18.9733 9.74805 18.8926" fill="white"/>
</g>
<defs>
<clipPath id="clip0_30_48643">
<rect width="16" height="16" fill="white" transform="translate(7 7)"/>
</clipPath>
</defs>
</svg>
