<svg width="16" height="16" viewBox="0 0 16 16" fill="none" xmlns="http://www.w3.org/2000/svg">
<rect width="16" height="16" rx="8" fill="#535862" fill-opacity="0.5"/>
<path d="M4.4 11.5C4.1525 11.5 3.9407 11.4144 3.7646 11.2432C3.5885 11.072 3.5003 10.8659 3.5 10.625V5.375C3.5 5.13437 3.5882 4.92846 3.7646 4.75725C3.941 4.58604 4.1528 4.50029 4.4 4.5H11.6C11.8475 4.5 12.0594 4.58575 12.2358 4.75725C12.4122 4.92875 12.5003 5.13467 12.5 5.375V10.625C12.5 10.8656 12.4119 11.0717 12.2358 11.2432C12.0597 11.4147 11.8478 11.5003 11.6 11.5H4.4ZM8 8.4375L11.6 6.25V5.375L8 7.5625L4.4 5.375V6.25L8 8.4375Z" fill="white"/>
</svg>
