<svg width="16" height="16" viewBox="0 0 16 16" fill="none" xmlns="http://www.w3.org/2000/svg">
<rect width="16" height="16" rx="8" fill="#535862" fill-opacity="0.5"/>
<path d="M11.3125 11.75C10.4444 11.75 9.58681 11.5608 8.73958 11.1825C7.89236 10.8042 7.12153 10.2676 6.42708 9.57292C5.73264 8.87819 5.19625 8.10736 4.81792 7.26042C4.43958 6.41347 4.25028 5.55583 4.25 4.6875C4.25 4.5625 4.29167 4.45833 4.375 4.375C4.45833 4.29167 4.5625 4.25 4.6875 4.25H6.375C6.47222 4.25 6.55903 4.28306 6.63542 4.34917C6.71181 4.41528 6.75694 4.49333 6.77083 4.58333L7.04167 6.04167C7.05556 6.15278 7.05208 6.24653 7.03125 6.32292C7.01042 6.39931 6.97222 6.46528 6.91667 6.52083L5.90625 7.54167C6.04514 7.79861 6.21 8.04681 6.40083 8.28625C6.59167 8.52569 6.80181 8.75667 7.03125 8.97917C7.24653 9.19444 7.47222 9.39417 7.70833 9.57833C7.94444 9.7625 8.19444 9.93083 8.45833 10.0833L9.4375 9.10417C9.5 9.04167 9.58167 8.99486 9.6825 8.96375C9.78333 8.93264 9.88222 8.92389 9.97917 8.9375L11.4167 9.22917C11.5139 9.25694 11.5937 9.30736 11.6562 9.38042C11.7187 9.45347 11.75 9.535 11.75 9.625V11.3125C11.75 11.4375 11.7083 11.5417 11.625 11.625C11.5417 11.7083 11.4375 11.75 11.3125 11.75Z" fill="white"/>
</svg>
