<svg width="19" height="18" viewBox="0 0 19 18" fill="none" xmlns="http://www.w3.org/2000/svg">
<path d="M8.08625 16.3582C8.54075 16.7332 9.01475 17.076 9.5 17.4105C9.9863 17.0804 10.458 16.7293 10.9137 16.3582C11.6735 15.7344 12.3885 15.058 13.0535 14.334C14.5865 12.6577 16.25 10.2277 16.25 7.5C16.25 6.61358 16.0754 5.73583 15.7362 4.91689C15.397 4.09794 14.8998 3.35382 14.273 2.72703C13.6462 2.10023 12.9021 1.60303 12.0831 1.26381C11.2642 0.924594 10.3864 0.75 9.5 0.75C8.61358 0.75 7.73583 0.924594 6.91689 1.26381C6.09794 1.60303 5.35382 2.10023 4.72703 2.72703C4.10023 3.35382 3.60303 4.09794 3.26381 4.91689C2.92459 5.73583 2.75 6.61358 2.75 7.5C2.75 10.2277 4.4135 12.657 5.9465 14.334C6.61146 15.0583 7.32647 15.7342 8.08625 16.3582ZM9.5 9.9375C8.85353 9.9375 8.23355 9.68069 7.77643 9.22357C7.31931 8.76645 7.0625 8.14646 7.0625 7.5C7.0625 6.85353 7.31931 6.23355 7.77643 5.77643C8.23355 5.31931 8.85353 5.0625 9.5 5.0625C10.1465 5.0625 10.7665 5.31931 11.2236 5.77643C11.6807 6.23355 11.9375 6.85353 11.9375 7.5C11.9375 8.14646 11.6807 8.76645 11.2236 9.22357C10.7665 9.68069 10.1465 9.9375 9.5 9.9375Z" fill="#535862"/>
</svg>
