<svg width="14" height="13" viewBox="0 0 14 13" fill="none" xmlns="http://www.w3.org/2000/svg">
<path d="M1.66927 13.0026C1.3026 13.0026 0.988826 12.8722 0.727938 12.6113C0.467049 12.3504 0.336382 12.0364 0.335938 11.6693V4.33594C0.335938 3.96927 0.466604 3.65549 0.727938 3.3946C0.989271 3.13372 1.30305 3.00305 1.66927 3.0026H4.33594V1.66927C4.33594 1.3026 4.4666 0.988826 4.72794 0.727938C4.98927 0.467049 5.30305 0.336382 5.66927 0.335938H8.33594C8.7026 0.335938 9.0166 0.466604 9.27794 0.727938C9.53927 0.989271 9.66972 1.30305 9.66927 1.66927V3.0026H12.3359C12.7026 3.0026 13.0166 3.13327 13.2779 3.3946C13.5393 3.65594 13.6697 3.96972 13.6693 4.33594V11.6693C13.6693 12.0359 13.5388 12.3499 13.2779 12.6113C13.017 12.8726 12.703 13.003 12.3359 13.0026H1.66927ZM5.66927 3.0026H8.33594V1.66927H5.66927V3.0026ZM7.0026 9.33594C7.36927 9.33594 7.68327 9.20549 7.9446 8.9446C8.20594 8.68372 8.33638 8.36972 8.33594 8.0026C8.33549 7.63549 8.20505 7.32172 7.9446 7.06127C7.68416 6.80083 7.37016 6.67016 7.0026 6.66927C6.63505 6.66838 6.32127 6.79905 6.06127 7.06127C5.80127 7.32349 5.6706 7.63727 5.66927 8.0026C5.66794 8.36794 5.7986 8.68194 6.06127 8.9446C6.32394 9.20727 6.63772 9.33772 7.0026 9.33594Z" fill="white"/>
</svg>
