<svg width="14" height="12" viewBox="0 0 14 12" fill="none" xmlns="http://www.w3.org/2000/svg">
<path d="M1.0026 0H13.0026C13.1794 0 13.349 0.0702379 13.474 0.195262C13.599 0.320286 13.6693 0.489856 13.6693 0.666667V11.3333C13.6693 11.5101 13.599 11.6797 13.474 11.8047C13.349 11.9298 13.1794 12 13.0026 12H1.0026C0.825793 12 0.656224 11.9298 0.5312 11.8047C0.406175 11.6797 0.335938 11.5101 0.335938 11.3333V0.666667C0.335938 0.489856 0.406175 0.320286 0.5312 0.195262C0.656224 0.0702379 0.825793 0 1.0026 0ZM8.8646 4.52867L7.23127 6.162L5.81727 4.74733L2.9886 7.576L3.93127 8.51867L5.81727 6.63333L7.23127 8.04667L9.80727 5.47133L11.0026 6.66667V3.33333H7.66927L8.8646 4.52867Z" fill="white"/>
</svg>
