<svg width="16" height="14" viewBox="0 0 16 14" fill="none" xmlns="http://www.w3.org/2000/svg">
<path d="M11.9969 11.3307H10.6635C10.4747 11.3307 10.3164 11.2667 10.1889 11.1387C10.0613 11.0107 9.99732 10.8525 9.99688 10.6641C9.99643 10.4756 10.0604 10.3174 10.1889 10.1894C10.3173 10.0614 10.4755 9.9974 10.6635 9.9974H11.9969V8.66406C11.9969 8.47517 12.0609 8.31695 12.1889 8.1894C12.3169 8.06184 12.4751 7.99784 12.6635 7.9974C12.852 7.99695 13.0104 8.06095 13.1389 8.1894C13.2673 8.31784 13.3311 8.47606 13.3302 8.66406V9.9974H14.6635C14.8524 9.9974 15.0109 10.0614 15.1389 10.1894C15.2669 10.3174 15.3307 10.4756 15.3302 10.6641C15.3298 10.8525 15.2658 11.011 15.1382 11.1394C15.0107 11.2678 14.8524 11.3316 14.6635 11.3307H13.3302V12.6641C13.3302 12.853 13.2662 13.0114 13.1382 13.1394C13.0102 13.2674 12.852 13.3312 12.6635 13.3307C12.4751 13.3303 12.3169 13.2663 12.1889 13.1387C12.0609 13.0112 11.9969 12.853 11.9969 12.6641V11.3307ZM1.99688 11.3307C1.80799 11.3307 1.64976 11.2667 1.52221 11.1387C1.39465 11.0107 1.33065 10.8525 1.33021 10.6641V7.33073H1.21354C1.00243 7.33073 0.830208 7.25006 0.696875 7.08873C0.563542 6.9274 0.519097 6.7414 0.563542 6.53073L1.23021 3.1974C1.26354 3.04184 1.34132 2.91406 1.46354 2.81406C1.58576 2.71406 1.72465 2.66406 1.88021 2.66406H10.7802C10.9358 2.66406 11.0747 2.71406 11.1969 2.81406C11.3191 2.91406 11.3969 3.04184 11.4302 3.1974L12.0969 6.53073C12.1413 6.74184 12.0969 6.92806 11.9635 7.0894C11.8302 7.25073 11.658 7.33117 11.4469 7.33073H11.3302V8.66406C11.3302 8.85295 11.2662 9.01139 11.1382 9.13939C11.0102 9.2674 10.852 9.33117 10.6635 9.33073C10.4751 9.33028 10.3169 9.26628 10.1889 9.13873C10.0609 9.01117 9.99688 8.85295 9.99688 8.66406V7.33073H7.33021V10.6641C7.33021 10.853 7.26621 11.0114 7.13821 11.1394C7.01021 11.2674 6.85199 11.3312 6.66354 11.3307H1.99688ZM2.66354 9.9974H5.99688V7.33073H2.66354V9.9974ZM1.99688 1.9974C1.80799 1.9974 1.64976 1.9334 1.52221 1.8054C1.39465 1.6774 1.33065 1.51917 1.33021 1.33073C1.32976 1.14228 1.39376 0.984063 1.52221 0.856063C1.65065 0.728063 1.80887 0.664062 1.99688 0.664062H10.6635C10.8524 0.664062 11.0109 0.728063 11.1389 0.856063C11.2669 0.984063 11.3307 1.14228 11.3302 1.33073C11.3298 1.51917 11.2658 1.67762 11.1382 1.80606C11.0107 1.93451 10.8524 1.99828 10.6635 1.9974H1.99688Z" fill="white"/>
</svg>
