<svg width="24" height="23" viewBox="0 0 24 23" fill="none" xmlns="http://www.w3.org/2000/svg">
<path d="M23.885 8.47531L21.845 9.67531L17.045 1.39531L19.085 0.195312L23.885 8.47531ZM9.365 7.27531L12.965 13.5153L20.285 9.31531L16.685 3.07531L9.365 7.27531ZM11.285 13.0353L8.885 8.83531L3.725 11.8353L6.125 16.0353L11.285 13.0353ZM0.125 15.3153L1.325 17.3553L4.445 15.5553L3.245 13.5153L0.125 15.3153ZM12.125 14.5953L11.765 14.1153L6.605 17.1153L6.965 17.5953C7.205 17.9553 7.565 18.3153 7.925 18.5553L6.005 24.1953H8.405L10.085 19.0353H10.205L12.005 24.1953H14.405L12.125 17.4753C12.725 16.6353 12.725 15.5553 12.125 14.5953Z" fill="white"/>
</svg>
